<svg xmlns="http://www.w3.org/2000/svg" viewBox="0 0 461 461"><defs><style>.cls-1{fill:#f26522;}.cls-2{font-size:100px;fill:#231f20;font-family:DigofaRegPersonal, Digofa;}.cls-3{fill:#fff;}</style></defs><g id="Layer_2" data-name="Layer 2"><g id="Layer_1-2" data-name="Layer 1"><path class="cls-1" d="M230.5,0C103.2,0,0,103.2,0,230.5S103.2,461,230.5,461,461,357.8,461,230.5,357.8,0,230.5,0Zm.29,351.44A120.72,120.72,0,1,1,351.5,230.73,120.72,120.72,0,0,1,230.79,351.44Z"/><text class="cls-2" transform="translate(210.75 349.78)"> </text><path class="cls-3" d="M313.35,83.5l6.36,8a30.52,30.52,0,0,1-17,7.6,34.8,34.8,0,0,1-19.17-3,40.49,40.49,0,0,1-12.92-9,29.76,29.76,0,0,1-7-11.6,34.35,34.35,0,0,1-1.45-12.73A36.75,36.75,0,0,1,265.49,50q6.18-13.48,19.67-18t27.43,1.94a32.43,32.43,0,0,1,14.19,12.3,35.46,35.46,0,0,1,5.59,17.72l-10.22,0a29.91,29.91,0,0,0-4.41-12.41,24,24,0,0,0-10.39-8.38,24.89,24.89,0,0,0-18.6-1A22.1,22.1,0,0,0,274.92,54.4q-4.46,9.75-.71,18.89T288,87a22.34,22.34,0,0,0,13.1,1.75A26.55,26.55,0,0,0,313.35,83.5Z"/><path class="cls-3" d="M333.44,112.83q1.83-14,14-22.67t26-5.76q13.85,2.89,22.6,15.21t6.87,26.28q-1.82,14-14,22.67t-26,5.76q-13.85-2.9-22.55-15.15T333.44,112.83Zm38.07-17a22.46,22.46,0,0,0-26.69,19A26.17,26.17,0,0,0,364.88,143a22.55,22.55,0,0,0,26.69-19,26.17,26.17,0,0,0-20.06-28.23Z"/><path class="cls-3" d="M439.36,230.35l1.05,18.76-65.83,3.7L374,241.47l54.17-3.05-55.44-19.54-.56-9.89L425,182.83l-54.26,3.06-.64-11.34L436,170.84l1.06,18.84-47.5,23.11Z"/><path class="cls-3" d="M431,298.41l-16,31.07q-4.56,8.88-13.06,11.67a21.45,21.45,0,0,1-17.08-1.62q-8.51-4.36-11.17-12.55a20.88,20.88,0,0,1,1.64-16.54l11.35-22.1-19.6-10.07,5.15-10Zm-25.64,26.28,10.88-21.19-19.91-10.23-10.89,21.19q-2.93,5.7-1.07,9.68a12.52,12.52,0,0,0,5.76,6,11.25,11.25,0,0,0,8.1.66Q402.84,329.63,405.38,324.69Z"/><path class="cls-3" d="M367.83,392.68l-21.07-30.9q-5.4-7.9-12.88-8.27A25.46,25.46,0,0,0,310,369.82q-2.38,7.11,3,15L334,415.73l-9.59,6.54-22.11-32.42q-7.27-10.67-3.86-22.18T313,348.6a38.78,38.78,0,0,1,15-6.37,27.43,27.43,0,0,1,15.13,1.42,26,26,0,0,1,12.26,10l22.11,32.42Z"/><path class="cls-3" d="M285.92,426.85l1.22,11.26-62.32,6.72-1.21-11.26,25.3-2.73L243,376.46l11.63-1.25,5.87,54.38Z"/><path class="cls-3" d="M165.32,432.92l-15.48-6.38-1.05-71.84,11.45,4.72.32,15.13,33.79,13.93,10.73-10.58,11.53,4.75Zm-4.63-45.69.36,33.86,24.11-23.77Z"/><path class="cls-3" d="M102.16,387.21l-8.71,7.23-40-48.22L62.12,339l16.26,19.58,42.08-34.94,7.47,9L85.85,367.56Z"/><path class="cls-3" d="M36.94,310.18,98.15,285l4.78,11.61-61.21,25.2Z"/><path class="cls-3" d="M81.26,269.68q-9.2,10.76-24.1,11.36t-24.94-9.36q-10-10-10.64-25.08t8.57-25.77q9.18-10.77,24.09-11.37t24.94,9.37q10,10,10.64,25T81.26,269.68ZM40.05,263.2a21.35,21.35,0,0,0,16.65,6.41,21.36,21.36,0,0,0,16.07-7.75,26.2,26.2,0,0,0-1.42-34.6,21.39,21.39,0,0,0-16.64-6.37,21.45,21.45,0,0,0-16.08,7.71,26.21,26.21,0,0,0,1.42,34.6Z"/><path class="cls-3" d="M35.88,150.58l56.5-11.53-39.45-20.8,5.57-10.57,58.4,30.79-4.66,8.84-66,13.29,46.13,24.32-5.5,10.43L28.52,164.56Z"/><path class="cls-3" d="M111,55.78,125.21,47l58.72,41.4L173.38,94.9,161,86.25l-31.14,19.14,2.25,14.9-10.62,6.53ZM150.62,78.9,123,59.28l5,33.48Z"/><path class="cls-3" d="M187.84,20.75l11.49-.93L203.7,74l38.82-3.13.94,11.64-50.31,4Z"/></g></g></svg>