<svg xmlns="http://www.w3.org/2000/svg" viewBox="0 0 500 114"><defs><style>.cls-1{fill:#00aeef;}.cls-2{fill:#fff;}</style></defs><g id="Layer_2" data-name="Layer 2"><g id="Layer_1-2" data-name="Layer 1"><rect class="cls-1" width="500" height="114"/><path class="cls-2" d="M80.34,94.85H68.24V19.65h58.2v11.7H80.34v20.9h39.8v12H80.34Z"/><path class="cls-2" d="M150.79,85.85q-12.15-11-12.15-28.1t12.15-28.1q12.15-11,29.85-11t29.85,11q12.15,11,12.15,28.1t-12.15,28.1q-12.15,11-29.85,11T150.79,85.85Zm29.85-55.7a30,30,0,0,0-21.15,8.1q-8.75,8.1-8.75,19.4,0,12.09,8.6,19.75t21.3,7.65q12.71,0,21.25-7.65t8.55-19.75a25.45,25.45,0,0,0-8.65-19.6A30.22,30.22,0,0,0,180.64,30.15Z"/><path class="cls-2" d="M282.94,69.65l-25.5-.1v25.3h-11.8V19.65h42q11.6,0,18.65,7t7,17.85a23.93,23.93,0,0,1-4.55,14.25,25.55,25.55,0,0,1-12,9.15l20.2,27h-15.2Zm5.7-39.1h-31.2v27.8h29.2q7.5,0,11.6-4.6t4.1-9.4a14.71,14.71,0,0,0-3.65-9.25A12.18,12.18,0,0,0,288.64,30.55Z"/><path class="cls-2" d="M408.34,19.65h18.9v75.1h-12V33L386,94.75h-8.3L348.64,33v61.9h-11.9V19.65h18.7l26.2,55.8Z"/></g></g></svg>